Flexion_states
version=1
nRows=7
nColumns=41
inDegrees=yes

# SIMM Motion File Header:
name Flexion_states
datacolumns 41
datarows 7
otherdata 1
range 2.05126511 2.42541966
endheader
time	/jointset/ground_thorax/thorax_tilt/value	/jointset/ground_thorax/thorax_tilt/speed	/jointset/ground_thorax/thorax_list/value	/jointset/ground_thorax/thorax_list/speed	/jointset/ground_thorax/thorax_rotation/value	/jointset/ground_thorax/thorax_rotation/speed	/jointset/ground_thorax/thorax_tx/value	/jointset/ground_thorax/thorax_tx/speed	/jointset/ground_thorax/thorax_ty/value	/jointset/ground_thorax/thorax_ty/speed	/jointset/ground_thorax/thorax_tz/value	/jointset/ground_thorax/thorax_tz/speed	/jointset/sternoclavicular/sternoclavicular_r2/value	/jointset/sternoclavicular/sternoclavicular_r2/speed	/jointset/sternoclavicular/sternoclavicular_r3/value	/jointset/sternoclavicular/sternoclavicular_r3/speed	/jointset/unrotscap/unrotscap_r3/value	/jointset/unrotscap/unrotscap_r3/speed	/jointset/unrotscap/unrotscap_r2/value	/jointset/unrotscap/unrotscap_r2/speed	/jointset/acromioclavicular/acromioclavicular_r2/value	/jointset/acromioclavicular/acromioclavicular_r2/speed	/jointset/acromioclavicular/acromioclavicular_r3/value	/jointset/acromioclavicular/acromioclavicular_r3/speed	/jointset/acromioclavicular/acromioclavicular_r1/value	/jointset/acromioclavicular/acromioclavicular_r1/speed	/jointset/unrothum/unrothum_r1/value	/jointset/unrothum/unrothum_r1/speed	/jointset/unrothum/unrothum_r3/value	/jointset/unrothum/unrothum_r3/speed	/jointset/unrothum/unrothum_r2/value	/jointset/unrothum/unrothum_r2/speed	/jointset/shoulder0/elv_angle/value	/jointset/shoulder0/elv_angle/speed	/jointset/shoulder1/shoulder_elv/value	/jointset/shoulder1/shoulder_elv/speed	/jointset/shoulder1/shoulder1_r2/value	/jointset/shoulder1/shoulder1_r2/speed	/jointset/shoulder2/shoulder_rot/value	/jointset/shoulder2/shoulder_rot/speed
      2.05126511	      0.00000000	     -0.00000000	     -0.00000000	      0.00000000	     -0.00000000	     -0.00000000	     -0.00000000	      0.00000000	     -0.00000000	     -0.00000000	     -0.00000000	     -0.00000000	    -16.45487828	     16.70828842	      6.96950432	     -7.07683681	     -6.96950432	      7.07683681	     16.45487828	    -16.70828842	     -3.33175248	      3.38306249	     26.92569224	    -27.34035610	     12.10318567	    -12.28957842	    -12.10318567	     12.28957842	    -26.92569224	     27.34035610	      3.33175248	     -3.38306249	     90.00000000	      0.00000000	     67.99600875	    -69.04316802	    -90.00000000	     -0.00000000	      0.00000000	      0.00000000
      2.11238278	      0.00000000	     -0.00000000	     -0.00000000	      0.00000000	     -0.00000000	     -0.00000000	     -0.00000000	      0.00000000	     -0.00000000	     -0.00000000	     -0.00000000	     -0.00000000	    -15.40317921	     17.48951130	      6.52405458	     -7.40772569	     -6.52405458	      7.40772569	     15.40317921	    -17.48951130	     -3.11880645	      3.54124301	     25.20476030	    -28.61869838	     11.32962120	    -12.86419740	    -11.32962120	     12.86419740	    -25.20476030	     28.61869838	      3.11880645	     -3.54124301	     90.00000000	      0.00000000	     63.65010367	    -72.27139227	    -90.00000000	     -0.00000000	      0.00000000	      0.00000000
      2.16617619	      0.00000000	     -0.00000000	     -0.00000000	      0.00000000	     -0.00000000	     -0.00000000	     -0.00000000	      0.00000000	     -0.00000000	     -0.00000000	     -0.00000000	     -0.00000000	    -14.46332655	     17.36613577	      6.12597767	     -7.35546968	     -6.12597767	      7.35546968	     14.46332655	    -17.36613577	     -2.92850687	      3.51626217	     23.66684656	    -28.41681469	     10.63832401	    -12.77345003	    -10.63832401	     12.77345003	    -23.66684656	     28.41681469	      2.92850687	     -3.51626217	     90.00000000	      0.00000000	     59.76637821	    -71.76157120	    -90.00000000	     -0.00000000	      0.00000000	      0.00000000
      2.21996960	      0.00000000	     -0.00000000	     -0.00000000	      0.00000000	     -0.00000000	     -0.00000000	     -0.00000000	      0.00000000	     -0.00000000	     -0.00000000	     -0.00000000	     -0.00000000	    -13.54133444	     16.87207842	      5.73546563	     -7.14621047	     -5.73546563	      7.14621047	     13.54133444	    -16.87207842	     -2.74182366	      3.41622638	     22.15815865	    -27.60837140	      9.96016391	    -12.41005216	     -9.96016391	     12.41005216	    -22.15815865	     27.60837140	      2.74182366	     -3.41622638	     90.00000000	      0.00000000	     55.95645735	    -69.71999260	    -90.00000000	     -0.00000000	      0.00000000	      0.00000000
      2.27376301	      0.00000000	     -0.00000000	     -0.00000000	      0.00000000	     -0.00000000	     -0.00000000	     -0.00000000	      0.00000000	     -0.00000000	     -0.00000000	     -0.00000000	     -0.00000000	    -12.65098972	     16.21318110	      5.35835793	     -6.86713288	     -5.35835793	      6.86713288	     12.65098972	    -16.21318110	     -2.56154836	      3.28281410	     20.70125648	    -26.53019469	      9.30528168	    -11.92540824	     -9.30528168	     11.92540824	    -20.70125648	     26.53019469	      2.56154836	     -3.28281410	     90.00000000	      0.00000000	     52.27731211	    -66.99725061	    -90.00000000	     -0.00000000	      0.00000000	      0.00000000
      2.34161378	      0.00000000	     -0.00000000	     -0.00000000	      0.00000000	     -0.00000000	     -0.00000000	     -0.00000000	      0.00000000	     -0.00000000	     -0.00000000	     -0.00000000	     -0.00000000	    -11.58180508	     15.29325682	      4.90550214	     -6.47749668	     -4.90550214	      6.47749668	     11.58180508	    -15.29325682	     -2.34506188	      3.09654958	     18.95171230	    -25.02489045	      8.51885592	    -11.24876912	     -8.51885592	     11.24876912	    -18.95171230	     25.02489045	      2.34506188	     -3.09654958	     90.00000000	      0.00000000	     47.85915193	    -63.19587459	    -90.00000000	     -0.00000000	      0.00000000	      0.00000000
      2.42541966	      0.00000000	     -0.00000000	     -0.00000000	      0.00000000	     -0.00000000	     -0.00000000	     -0.00000000	      0.00000000	     -0.00000000	     -0.00000000	     -0.00000000	     -0.00000000	    -10.34927052	     14.11780524	      4.38345908	     -5.97963126	     -4.38345908	      5.97963126	     10.34927052	    -14.11780524	     -2.09550063	      2.85854637	     16.93487294	    -23.10145795	      7.61228011	    -10.38418000	     -7.61228011	     10.38418000	    -16.93487294	     23.10145795	      2.09550063	     -2.85854637	     90.00000000	      0.00000000	     42.76598568	    -58.33859065	    -90.00000000	     -0.00000000	      0.00000000	      0.00000000
